<?xml version="1.0" standalone="no"?><!DOCTYPE svg PUBLIC "-//W3C//DTD SVG 1.1//EN" "http://www.w3.org/Graphics/SVG/1.1/DTD/svg11.dtd"><svg t="1716367636739" class="icon" viewBox="0 0 1024 1024" version="1.1" xmlns="http://www.w3.org/2000/svg" p-id="12796" xmlns:xlink="http://www.w3.org/1999/xlink" width="200" height="200"><path d="M1017.7536 973.6448c0 22.7584-25.1648 41.216-56.32 41.216H60.3648c-31.0784 0-56.32-18.4576-56.32-41.216 0-22.7584 25.2416-41.216 56.32-41.216h901.0688c31.1552 0 56.32 18.4576 56.32 41.216z" fill="#d81e06" p-id="12797"></path><path d="M857.6512 945.3568h-84.48V566.656c0-141.1072-117.6064-255.872-262.1952-255.872-144.5632 0-262.2208 114.7648-262.2208 255.872v378.7008h-84.48V566.656C164.5056 379.904 319.5904 228.5824 511.0016 228.352c191.3856 0.256 346.4448 151.5776 346.624 338.304v378.7008z" fill="#d81e06" p-id="12798"></path><path d="M482.432 897.5872l52.3264-222.2336h-155.4944l140.8-256.768-44.8 201.8048h167.3984l-160.2304 277.1968zM458.624 24.1664h84.3008v123.1872h-84.3264V24.1664z m499.5328 217.3696l59.648 58.1376-89.2672 87.0912-59.5712-58.1888 89.1904-87.04z m-804.5312 87.04l-59.52 58.1888-89.344-87.0912 59.648-58.1888 89.216 87.0912z" fill="#d81e06" p-id="12799"></path></svg>