<?xml version="1.0" standalone="no"?><!DOCTYPE svg PUBLIC "-//W3C//DTD SVG 1.1//EN" "http://www.w3.org/Graphics/SVG/1.1/DTD/svg11.dtd"><svg t="1716367722464" class="icon" viewBox="0 0 1024 1024" version="1.1" xmlns="http://www.w3.org/2000/svg" p-id="14188" xmlns:xlink="http://www.w3.org/1999/xlink" width="200" height="200"><path d="M777.936 104h-64a8 8 0 0 1 0-16h64a8 8 0 0 1 0 16z" fill="#263238" p-id="14189"></path><path d="M745.936 136a8 8 0 0 1-8-8V64a8 8 0 0 1 16 0v64a8 8 0 0 1-8 8zM665.936 208h-64a8 8 0 0 1 0-16h64a8 8 0 0 1 0 16z" fill="#263238" p-id="14190"></path><path d="M633.936 240a8 8 0 0 1-8-8v-64a8 8 0 0 1 16 0v64a8 8 0 0 1-8 8z" fill="#263238" p-id="14191"></path><path d="M720.56 476.848l60.416 60.4-43.04 43.04h120v-120l-43.024 43.024-60.416-60.4" fill="#FF5252" p-id="14192"></path><path d="M857.936 588.288h-120a8 8 0 0 1-5.664-13.664l37.376-37.376-54.752-54.752a8 8 0 0 1 11.312-11.312l60.4 60.4a8 8 0 0 1 0 11.312l-29.376 29.376h92.688v-92.688l-29.376 29.376a8 8 0 0 1-11.312 0l-60.4-60.4a8 8 0 0 1 11.312-11.312l54.752 54.752 37.376-37.376a8 8 0 1 1 13.664 5.664v120a8 8 0 0 1-8 8z" fill="#263238" p-id="14193"></path><path d="M675.312 363.712l-23.44-23.424h-147.056l-134.88-84.304-140.72 87.952 25.44 40.704 115.28-72.048 121.12 75.696H632l9.376 9.36" fill="#FF5252" p-id="14194"></path><path d="M641.376 405.664a8.032 8.032 0 0 1-5.664-2.336l-7.024-7.024h-137.632a7.92 7.92 0 0 1-4.24-1.216l-116.88-73.04-111.04 69.392a7.936 7.936 0 0 1-6.032 1.008 8.08 8.08 0 0 1-4.992-3.552l-25.44-40.704a8 8 0 0 1 2.544-11.024l140.72-87.952a7.952 7.952 0 0 1 8.48 0l132.944 83.088h144.752c2.128 0 4.16 0.848 5.664 2.336l23.44 23.44a8 8 0 0 1-11.312 11.312l-21.088-21.088h-143.744a7.92 7.92 0 0 1-4.24-1.216l-130.64-81.648-129.696 81.056 16.96 27.136 108.496-67.808a7.952 7.952 0 0 1 8.48 0l119.168 74.48H632c2.128 0 4.16 0.848 5.664 2.336l9.376 9.376a8 8 0 0 1-5.664 13.648zM976 888H48a8 8 0 0 1 0-16h928a8 8 0 0 1 0 16z" fill="#263238" p-id="14195"></path><path d="M128 968a8 8 0 0 1-8-8V64a8 8 0 0 1 16 0v896a8 8 0 0 1-8 8z" fill="#263238" p-id="14196"></path><path d="M867.872 732.288l-84.848-84.864v60.864h-70.208l-134.16-83.856-140.544 78.08-179.2-179.2-33.936 33.936 204.784 204.8 147.456-81.92 121.84 76.16h83.968v60.848z" fill="#FFD740" p-id="14197"></path><path d="M783.024 825.136a8 8 0 0 1-8-8v-52.848H699.04a7.92 7.92 0 0 1-4.24-1.216l-117.84-73.648-143.328 79.632a8 8 0 0 1-9.536-1.328l-204.8-204.8a8 8 0 0 1 0-11.312l33.936-33.936a8 8 0 0 1 11.312 0l174.944 174.928 135.28-75.152a7.968 7.968 0 0 1 8.128 0.208l132.224 82.64h59.92v-52.848a8 8 0 0 1 13.664-5.664l84.848 84.848a8 8 0 0 1 0 11.312l-84.848 84.848a8.128 8.128 0 0 1-5.68 2.336z m-81.68-76.848h81.68a8 8 0 0 1 8 8v41.536l65.536-65.536-65.536-65.536v41.536a8 8 0 0 1-8 8h-70.208a7.92 7.92 0 0 1-4.24-1.216l-130.16-81.344-136.416 75.792a7.984 7.984 0 0 1-9.536-1.328L258.912 534.624l-22.624 22.624 194.88 194.88 142.176-78.992a7.968 7.968 0 0 1 8.128 0.208l119.872 74.944z" fill="#263238" p-id="14198"></path><path d="M338.56 557.712l71.792-57.424h241.52l163.04-163.04 43.024 43.04v-120h-120l43.04 43.024-148.976 148.976H393.52l-89.104 71.28" fill="#40C4FF" p-id="14199"></path><path d="M338.576 565.712a8.016 8.016 0 0 1-5.008-14.256l71.792-57.44a8 8 0 0 1 4.992-1.744h238.208l160.688-160.688a8 8 0 0 1 11.312 0l29.376 29.376v-92.688h-92.688l29.376 29.376a8 8 0 0 1 0 11.312l-148.976 148.976a8 8 0 0 1-5.664 2.336H396.32l-86.912 69.536a8 8 0 0 1-10-12.496l89.104-71.28a8 8 0 0 1 4.992-1.744h235.168l140.976-140.976-37.376-37.376a7.984 7.984 0 0 1 5.664-13.664h120a8 8 0 0 1 8 8v120a8 8 0 0 1-13.664 5.664l-37.376-37.376-157.376 157.376a8 8 0 0 1-5.664 2.336H413.168l-69.6 55.68a7.904 7.904 0 0 1-4.992 1.76z" fill="#263238" p-id="14200"></path></svg>