<?xml version="1.0" standalone="no"?><!DOCTYPE svg PUBLIC "-//W3C//DTD SVG 1.1//EN" "http://www.w3.org/Graphics/SVG/1.1/DTD/svg11.dtd"><svg t="1718517653744" class="icon" viewBox="0 0 1024 1024" version="1.1" xmlns="http://www.w3.org/2000/svg" p-id="1512" width="200" height="200" xmlns:xlink="http://www.w3.org/1999/xlink"><path d="M2.1 962.2h76.4L164 472.6H52.2v59.5H17.5v-94.4l150.1-120.8v-71.5H52.3v59.5H17.5v-94.3l150.1-121V64.4c0-31.3 26.7-52.4 56.5-52.6l133.4-0.1c29.9 0 57 21.5 57 52.8V90l150.3 120.9v94h-34.9v-59.5H414.5v71.7l150.3 120.8v60.7h-34.9v-26.1H418.1l4.6 26.1h-92.9l26.1-26.1H226.1l64.8 64.5 20.2-19.9-10 60.6-10.1-10-90.5 89.9L291 764.4l28.7-33.8h7.6v24.5l-22 26 22 26v33.6L291 797.9 151.9 962.2h197.6V732.3h610.1v229.9h62.5v50.1H2l0.1-50.1z m188-283.3l-44.9 257.7 131.6-155.5-86.7-102.2z m31.6-180.1L199 628.5l76.6-76.1-53.9-53.6zM229 409l49.2-69.6-49.2-69.6V409z m62.5-88.4l53.1-75.2H238.3l53.2 75.2z m61.5-49.5l-48.3 68.3 48.3 68.3V271.1z m-61.5 87.1l-56.1 79.5h112.3l-56.2-79.5zM229 186.3l47.1-47.1-47.1-47v94.1z m62.5-62.5L342.3 73l-101.6-0.1 50.8 50.9zM353 93.2l-46.1 46.1 46.1 46.1V93.2z m-61.5 61.5l-55.9 55.9h111.7l-55.8-55.9z m123 204.2v78.9h97.9l-97.9-78.9zM69.3 437.7h98.3v-79l-98.3 79z m345.2-305.9v78.7h97.9l-97.9-78.7zM69.4 210.5h98.2v-79l-98.2 79zM976 520.9H855v-51.7h5.6v-26.9h-85.4v26.9h5.5v81.2h-13.1v-29.5H333.1L307.9 675v33.3h693.3V675L976 520.9zM456.4 962.2h101V780h-101v182.2zM804.5 780H703.6v119.7h100.9V780z" p-id="1513" fill="#e6e6e6"></path></svg>