<?xml version="1.0" standalone="no"?><!DOCTYPE svg PUBLIC "-//W3C//DTD SVG 1.1//EN" "http://www.w3.org/Graphics/SVG/1.1/DTD/svg11.dtd"><svg t="1716367562818" class="icon" viewBox="0 0 1024 1024" version="1.1" xmlns="http://www.w3.org/2000/svg" p-id="11621" data-spm-anchor-id="a313x.search_index.0.i3.4d9e3a81WUxy2U" xmlns:xlink="http://www.w3.org/1999/xlink" width="200" height="200"><path d="M0 1024v-51.482342h76.512431l85.898715-500.886214H50.344611v60.868626H15.359373v-96.707163l150.7494-123.443848V238.965389H50.344611v60.868626H15.359373V203.411285l150.7494-123.728281v-25.598955A54.952423 54.952423 0 0 1 222.710906 0.041812h133.967863a55.322185 55.322185 0 0 1 57.455432 54.042237v25.883388l150.7494 123.728281v96.422729h-34.985239V239.249822h-115.764161v73.38367l150.7494 123.443848v62.29079h-34.985239v-26.736686h-112.350967l4.835358 26.736686h-93.578401l26.452253-26.736686H224.986369l65.135118 65.988417 20.194731-20.479164-9.955149 62.006357-10.239582-10.239582-90.734073 91.871804 90.734073 109.50664 28.727716-34.700806h7.679686v25.030089l-22.185761 26.736686 22.185761 26.452254v34.416372l-36.407402-43.518223-139.65652 167.81537h198.249683v-235.225951M188.863399 682.680604l-45.22482 263.669233 131.976833-158.997952L188.863399 682.680604z m31.572044-184.312474l-22.754626 132.830132 76.796864-77.934596-54.042238-54.895536z m7.395254-91.871804l49.491312-71.108208-49.491312-71.39264v142.500848z m62.575223-90.44964l53.473372-76.796864H237.21698z m62.006356-50.629044l-48.638013 69.970476 48.638013 69.686044V265.417642z m-62.006356 89.027476l-56.317701 81.347789h112.919834z m-62.575223-175.779489l47.21585-48.069148-47.21585-48.353581v96.422729z m62.575223-63.997387L341.319396 62.901467 239.492443 62.617034z m62.006356-31.287611l-46.362551 47.21585 46.362551 47.215849V83.380631z m-62.006356 62.859655L234.372652 203.411285h112.350968l-56.3177-57.170999z m123.728281 209.05813v80.778924h98.129326zM67.410581 435.792907h98.698192v-80.778923l-98.698192 80.778923z m346.439187-312.876113v80.494491h98.413759zM67.695014 203.411285h98.413759V122.632361z m264.522532 317.711471l-25.314522 157.575788v34.13194" fill="#1296db" opacity=".54" p-id="11622"></path><path d="M348.71465 972.517658v-235.225951h612.383883v235.225951H1023.958188V1024H0v-51.482342h348.71465z m628.880987-451.394902H856.142819L853.29849 426.691057l-77.081297 13.937208-7.679686 80.494491H332.217546l-25.314522 191.707728h696.007135zM456.230259 972.517658h101.258088v-186.303504h-101.258088v186.303504z m349.283516-186.303504h-101.258088v122.59055h101.258088v-122.59055z" fill="#1296db" p-id="11623"></path></svg>