<?xml version="1.0" standalone="no"?><!DOCTYPE svg PUBLIC "-//W3C//DTD SVG 1.1//EN" "http://www.w3.org/Graphics/SVG/1.1/DTD/svg11.dtd"><svg t="1716367799886" class="icon" viewBox="0 0 1024 1024" version="1.1" xmlns="http://www.w3.org/2000/svg" p-id="17215" xmlns:xlink="http://www.w3.org/1999/xlink" width="200" height="200"><path d="M731.853 775.014c-25.037-106.342-97.383-190.668-191.795-233.062 58.47-44.8 95.078-116.685 90.777-196.813-6.246-115.763-99.277-210.483-214.937-218.521-135.322-9.421-248.423 97.945-248.423 231.27 0 74.957 35.789 141.67 91.136 184.064-94.413 42.394-166.758 126.72-191.795 233.062-7.168 30.413-15.667 71.63 5.632 95.13 18.637 20.582 62.464 21.76 90.214 21.76H650.65c4.915 0 43.468-1.126 48.23-2.304 48.435-11.93 43.878-68.147 32.973-114.586z m-196.25 42.957H267.008c-25.856 0-46.797-20.94-46.797-46.797 0-25.856 20.941-46.796 46.797-46.796h268.595c25.856 0 46.797 20.94 46.797 46.796 0 25.856-20.992 46.797-46.797 46.797z" fill="#2595E8" p-id="17216"></path><path d="M540.006 541.952c55.348-42.394 91.136-109.107 91.136-184.064 0-127.846-103.987-231.834-231.833-231.834-127.847 0-231.834 103.988-231.834 231.834 0 74.957 35.789 141.67 91.136 184.064-94.413 42.394-166.758 126.72-191.795 233.062-6.656 28.314-16.896 65.639 1.894 87.962 7.015 8.346 19.866 16.691 36.967 20.685 42.496 9.318 87.347 6.041 132.659 6.041 104.09 0 202.086-25.958 287.898-71.73H267.008c-25.856 0-46.797-20.942-46.797-46.798s20.941-46.796 46.797-46.796h268.595c25.856 0 46.797 20.94 46.797 46.796 0 5.07-0.82 9.882-2.304 14.439a616.334 616.334 0 0 0 116.173-101.376 339.446 339.446 0 0 0-156.263-142.285z" fill="#3A9CED" p-id="17217"></path><path d="M829.133 515.174c38.349-36.659 62.31-88.268 62.31-145.356 0-110.95-90.265-201.268-201.267-201.268-24.986 0-45.26 20.276-45.26 45.261s20.274 45.261 45.26 45.261c61.03 0 110.694 49.664 110.694 110.694 0 57.14-43.468 104.244-99.072 110.08-3.84-0.153-7.73-0.307-11.622-0.307-24.986 0-45.26 20.275-45.26 45.261v0.922c0 24.985 20.274 45.26 45.26 45.26 4.3 0 8.602-0.204 12.851-0.46 103.834 6.656 186.317 93.235 186.317 198.707 0 24.985 20.275 45.26 45.26 45.26s45.262-20.275 45.262-45.26c0.05-109.312-60.98-204.749-150.733-254.055z" fill="#FCBD71" p-id="17218"></path><path d="M850.995 248.986c-36.761-48.794-95.18-80.436-160.819-80.436-24.986 0-45.26 20.276-45.26 45.261s20.274 45.261 45.26 45.261c61.03 0 110.694 49.664 110.694 110.694 0 57.14-43.468 104.244-99.072 110.08-3.84-0.153-7.73-0.307-11.622-0.307-24.986 0-45.26 20.275-45.26 45.261v0.922c0 24.985 20.274 45.26 45.26 45.26 4.3 0 8.602-0.204 12.851-0.46 22.835 1.484 44.647 6.81 64.768 15.36 53.248-90.88 83.815-196.66 83.815-309.607 0-9.113-0.205-18.227-0.615-27.29z" fill="#FCBD71" p-id="17219"></path><path d="M644.864 213.811c0 11.11 4.045 21.3 10.7 29.184a600.697 600.697 0 0 0 17.767-71.219c-16.64 6.707-28.467 22.989-28.467 42.035zM110.592 670.515c229.53-14.797 424.653-155.853 516.66-354.457-19.764-107.93-114.433-190.004-227.994-190.004-127.847 0-231.834 103.988-231.834 231.834 0 74.957 35.789 141.67 91.136 184.064-60.723 27.238-112.18 71.936-147.968 128.563z" fill="#59ADF8" p-id="17220"></path><path d="M455.936 133.069a232.15 232.15 0 0 0-56.627-7.015c-127.847 0-231.834 103.988-231.834 231.834 0 14.182 1.28 28.058 3.738 41.574C292.557 343.86 392.704 249.907 455.936 133.07z" fill="#6BC2FC" p-id="17221"></path></svg>